<svg width="7" height="12" viewBox="0 0 7 12" fill="none" xmlns="http://www.w3.org/2000/svg">
<path d="M0.291992 6C0.291992 6.1709 0.360351 6.3418 0.490234 6.45801L5.91113 11.749C6.02734 11.8652 6.17773 11.9336 6.34863 11.9336C6.7041 11.9336 6.97754 11.667 6.97754 11.3115C6.97754 11.1406 6.90918 10.9834 6.7998 10.8672L1.82324 6L6.7998 1.12598C6.90918 1.0166 6.97754 0.859375 6.97754 0.68164C6.97754 0.326172 6.7041 0.05957 6.34863 0.05957C6.17773 0.05957 6.02734 0.127929 5.9043 0.24414L0.490234 5.53516C0.360351 5.66504 0.291992 5.82227 0.291992 6Z" fill="#575757"/>
</svg>
