<svg width="183" height="27" viewBox="0 0 183 27" fill="none" xmlns="http://www.w3.org/2000/svg">
<g clip-path="url(#clip0_4780_82686)">
<path d="M0 11.4902H13.9441C18.5629 11.4902 20.1867 13.0378 20.1867 16.83V21.4919C20.1867 25.2842 18.5638 26.8317 13.9441 26.8317H0V11.4902ZM4.62053 22.8907H12.8203C14.7964 22.8907 15.567 22.3177 15.567 20.1351V18.0592C15.567 15.8765 14.7964 15.3035 12.8203 15.3035H4.62053V22.8907Z" fill="#003DBC"/>
<path d="M26.6549 11.4902H39.4692V15.0516H27.6077V17.508H38.8438V20.6862H27.6077V23.1444H39.7399V26.8317H26.6549C24.629 26.8317 22.9863 25.1591 22.9863 23.0963V15.2248C22.9872 13.162 24.629 11.4902 26.6549 11.4902Z" fill="#003DBC"/>
<path d="M42.2695 21.8084H46.8901C46.9107 23.4407 47.5559 23.5685 48.8876 23.5685H54.5469C55.5263 23.5685 56.5246 23.4617 56.5246 22.2764C56.5246 20.9405 55.9842 20.8566 50.0311 20.8566C43.0806 20.8566 42.291 20.008 42.291 16.2358C42.291 13.4618 42.5402 11.3203 48.367 11.3203H54.8175C60.1451 11.3203 60.6451 13.1644 60.6451 15.8544V16.3426H56.0246C56.0246 15.2193 55.9009 14.7539 53.7779 14.7539H48.6591C47.6186 14.7539 46.9107 15.1126 46.9107 15.9393C46.9107 17.2751 47.4734 17.318 52.4265 17.2952C59.6056 17.2742 61.2697 17.7195 61.2697 22.1898C61.2697 26.3223 59.8977 27.0003 53.7582 27.0003H48.1599C43.9561 27.0003 42.2695 26.1964 42.2695 22.8677V21.8084Z" fill="#003DBC"/>
<path d="M64.1298 11.4902H68.7503V17.1266H69.7014C70.7959 17.1266 71.8476 16.6988 72.6414 15.9316L77.2327 11.4902H83.0243L75.3589 18.9917L83.9814 26.8317H77.939L72.4842 22.0063C71.7075 21.3196 70.7135 20.9408 69.6851 20.9408H68.7494V26.8308H64.1289V11.4902H64.1298Z" fill="#003DBC"/>
<path d="M85.9727 11.4902H90.5932V26.8317H85.9727V11.4902Z" fill="#003DBC"/>
<path d="M93.9688 11.4902H101.065L106.289 21.3642L111.511 11.4902H118.608V26.8317H114.113L114.08 18.025C114.077 17.4275 113.298 17.222 113.011 17.7433L108.015 26.8317H104.56L99.5653 17.7433C99.2783 17.222 98.4991 17.4275 98.4965 18.025L98.4639 26.8317H93.9688V11.4902Z" fill="#003DBC"/>
<path d="M121.412 16.8727C121.412 12.3797 123.887 11.3203 128.049 11.3203H135.458C139.621 11.3203 142.096 12.3797 142.096 16.8727V21.4497C142.096 25.9409 139.621 27.0003 135.458 27.0003H128.049C123.887 27.0003 121.412 25.9409 121.412 21.4497V16.8727ZM126.156 19.987C126.156 22.2125 126.613 23.0602 128.798 23.0602H134.708C136.894 23.0602 137.352 22.2134 137.352 19.987V18.3345C137.352 16.4283 136.894 15.2613 134.459 15.2613H129.049C126.614 15.2613 126.156 16.4274 126.156 18.3345V19.987Z" fill="#003DBC"/>
<path d="M168.517 21.075H156.984V14.863C156.984 10.7278 154.827 9.58268 151.166 9.4707V26.9992H173.812C173.702 23.2716 172.577 21.075 168.517 21.075Z" fill="#FFBE00"/>
<path d="M171.35 6.22687H171.348C165.902 2.34623 158.862 0 151.166 0V5.91894C151.166 5.91894 151.756 5.90581 152.755 5.9723C156.342 6.15076 159.729 6.92934 162.764 8.18381C162.768 8.18556 162.772 8.18731 162.777 8.18906C163.662 8.5556 164.996 8.76118 166.361 8.76118H166.642H174.449C173.487 7.85663 172.451 7.01157 171.35 6.22687Z" fill="#003DBC"/>
<path d="M183.002 26.9987C183.002 21.5574 181.031 15.9176 177.664 11.7246H160.211V17.6645H169.154C174.934 17.6645 176.989 21.3624 177.16 26.6488C177.164 26.7442 177.173 26.8343 177.176 26.9314C177.176 26.9314 177.176 26.9742 177.176 26.9987H183.002Z" fill="#FFBE00"/>
</g>
<defs>
<clipPath id="clip0_4780_82686">
<rect width="183" height="27" fill="white"/>
</clipPath>
</defs>
</svg>
