<svg width="37" height="36" viewBox="0 0 37 36" fill="none" xmlns="http://www.w3.org/2000/svg">
<path d="M0 18C0 8.05887 8.05888 0 18 0H19C28.9411 0 37 8.05887 37 18V18C37 27.9411 28.9411 36 19 36H18C8.05888 36 0 27.9411 0 18V18Z" fill="#E4F1FF"/>
<path d="M21.7469 19.1222C22.6048 18.4472 23.2309 17.5217 23.5383 16.4744C23.8456 15.427 23.8188 14.3099 23.4617 13.2784C23.1046 12.247 22.4349 11.3525 21.5457 10.7194C20.6566 10.0863 19.5922 9.74609 18.5007 9.74609C17.4091 9.74609 16.3448 10.0863 15.4556 10.7194C14.5664 11.3525 13.8967 12.247 13.5396 13.2784C13.1825 14.3099 13.1557 15.427 13.4631 16.4744C13.7704 17.5217 14.3966 18.4472 15.2544 19.1222C13.7845 19.7111 12.5019 20.6878 11.5434 21.9483C10.585 23.2088 9.98654 24.7058 9.81192 26.2797C9.79928 26.3946 9.8094 26.5108 9.84169 26.6218C9.87399 26.7328 9.92783 26.8364 10.0001 26.9266C10.1462 27.1087 10.3586 27.2254 10.5907 27.2509C10.8227 27.2764 11.0554 27.2087 11.2376 27.0627C11.4197 26.9166 11.5364 26.7042 11.5619 26.4722C11.7541 24.7617 12.5696 23.182 13.8529 22.0348C15.1361 20.8877 16.797 20.2536 18.5182 20.2536C20.2394 20.2536 21.9003 20.8877 23.1835 22.0348C24.4667 23.182 25.2823 24.7617 25.4744 26.4722C25.4982 26.6872 25.6008 26.8857 25.7624 27.0295C25.924 27.1734 26.1331 27.2522 26.3494 27.2509H26.4457C26.675 27.2245 26.8847 27.1085 27.0289 26.9282C27.1731 26.748 27.2403 26.518 27.2157 26.2884C27.0402 24.7101 26.4386 23.2093 25.4752 21.9468C24.5118 20.6844 23.223 19.7079 21.7469 19.1222ZM18.5007 18.5009C17.8084 18.5009 17.1317 18.2956 16.5562 17.911C15.9806 17.5265 15.532 16.9798 15.2671 16.3403C15.0022 15.7008 14.9329 14.997 15.0679 14.3181C15.203 13.6392 15.5363 13.0155 16.0258 12.526C16.5153 12.0365 17.1389 11.7032 17.8179 11.5682C18.4968 11.4331 19.2005 11.5024 19.8401 11.7673C20.4796 12.0322 21.0262 12.4808 21.4108 13.0564C21.7954 13.632 22.0007 14.3087 22.0007 15.0009C22.0007 15.9292 21.6319 16.8194 20.9755 17.4758C20.3192 18.1322 19.4289 18.5009 18.5007 18.5009Z" fill="#003DBC"/>
</svg>
